<?xml version="1.0"?>
<svg xmlns="http://www.w3.org/2000/svg" xmlns:xlink="http://www.w3.org/1999/xlink" xmlns:svgjs="http://svgjs.com/svgjs" version="1.1" width="512" height="512" x="0" y="0" viewBox="0 0 512 512" style="enable-background:new 0 0 512 512" xml:space="preserve" class=""><g>
<path xmlns="http://www.w3.org/2000/svg" style="" d="M480,432H32c-17.664,0-32-14.336-32-32V112c0-17.664,14.336-32,32-32h448c17.664,0,32,14.336,32,32  v288C512,417.664,497.664,432,480,432z" fill="#e1911e" data-original="#1e88e5" class=""/>
<path xmlns="http://www.w3.org/2000/svg" style="" d="M480,432H32c-17.952,0-32-14.048-32-32c0-5.088,2.432-9.888,6.528-12.896l240-160  c2.816-2.08,6.144-3.104,9.472-3.104s6.656,1.024,9.472,3.104l240,160C509.568,390.112,512,394.912,512,400  C512,417.952,497.952,432,480,432z" fill="#e5971e" data-original="#2196f3" class=""/>
<path xmlns="http://www.w3.org/2000/svg" style="" d="M480,80H32C14.048,80,0,94.048,0,112c0,5.088,2.432,9.888,6.528,12.896L246.656,297.28  c5.568,4,13.088,4,18.656,0L505.44,124.896c4.128-3.008,6.56-7.808,6.56-12.896C512,94.048,497.952,80,480,80z" fill="#e9811e" data-original="#64b5f6" class=""/>
<g xmlns="http://www.w3.org/2000/svg">
</g>
<g xmlns="http://www.w3.org/2000/svg">
</g>
<g xmlns="http://www.w3.org/2000/svg">
</g>
<g xmlns="http://www.w3.org/2000/svg">
</g>
<g xmlns="http://www.w3.org/2000/svg">
</g>
<g xmlns="http://www.w3.org/2000/svg">
</g>
<g xmlns="http://www.w3.org/2000/svg">
</g>
<g xmlns="http://www.w3.org/2000/svg">
</g>
<g xmlns="http://www.w3.org/2000/svg">
</g>
<g xmlns="http://www.w3.org/2000/svg">
</g>
<g xmlns="http://www.w3.org/2000/svg">
</g>
<g xmlns="http://www.w3.org/2000/svg">
</g>
<g xmlns="http://www.w3.org/2000/svg">
</g>
<g xmlns="http://www.w3.org/2000/svg">
</g>
<g xmlns="http://www.w3.org/2000/svg">
</g>
</g></svg>
